<svg xmlns="http://www.w3.org/2000/svg" version="1.1" xmlns:xlink="http://www.w3.org/1999/xlink" xmlns:svgjs="http://svgjs.dev/svgjs" width="1440" height="560" preserveAspectRatio="none" viewBox="0 0 1440 560"><g mask="url(&quot;#SvgjsMask1006&quot;)" fill="none"><rect width="1440" height="560" x="0" y="0" fill="rgba(12, 11, 47, 1)"></rect><path d="M765.4 145.74L791.72 145.74L791.72 172.06L765.4 172.06z" stroke="rgba(221, 33, 32, 1)"></path><path d="M179.68 473.93a38 38 0 1 0 27.46-70.86z" stroke="rgba(221, 33, 32, 1)"></path><path d="M89.75 221.74 a23.18 23.18 0 1 0 46.36 0 a23.18 23.18 0 1 0 -46.36 0z" stroke="rgba(221, 33, 32, 1)"></path><path d="M1434.5 152.58L1441.64 152.58L1441.64 159.72L1434.5 159.72z" stroke="rgba(229, 129, 38, 1)"></path><path d="M1330.4 509.25 a39.98 39.98 0 1 0 79.96 0 a39.98 39.98 0 1 0 -79.96 0z" fill="rgba(229, 129, 38, 1)"></path><path d="M41.25 359.46a34.94 34.94 0 1 0 30.97-62.64z" fill="rgba(229, 129, 38, 1)"></path><path d="M1197.19 392.79a39.53 39.53 0 1 0-40.73-67.76z" stroke="rgba(229, 129, 38, 1)"></path><path d="M1125.67 266.01L1174.59 266.01L1174.59 271.4L1125.67 271.4z" stroke="rgba(229, 129, 38, 1)"></path><path d="M245.31 90.24a26.51 26.51 0 1 0 38-36.97z" fill="rgba(229, 129, 38, 1)"></path><path d="M741.8 486.42 a0.89 0.89 0 1 0 1.78 0 a0.89 0.89 0 1 0 -1.78 0z" fill="rgba(221, 33, 32, 1)"></path><path d="M812.75 62.32L854.94 62.32L854.94 104.51L812.75 104.51z" fill="rgba(18, 207, 155, 1)"></path><path d="M788.36 276.27a17.62 17.62 0 1 0 15.14-31.82z" fill="rgba(229, 129, 38, 1)"></path><path d="M949.84 251.38L1000.9 251.38L1000.9 302.44L949.84 302.44z" stroke="rgba(18, 207, 155, 1)"></path><path d="M231.84 23.06L270.16 23.06L270.16 61.38L231.84 61.38z" fill="rgba(229, 129, 38, 1)"></path><path d="M1229.43 12.66 a41.61 41.61 0 1 0 83.22 0 a41.61 41.61 0 1 0 -83.22 0z" fill="rgba(221, 33, 32, 1)"></path><path d="M739.62 99.35L755.54 99.35L755.54 115.27L739.62 115.27z" stroke="rgba(18, 207, 155, 1)"></path><path d="M1223.88 56.58a27.19 27.19 0 1 0 38.84 38.06z" fill="rgba(18, 207, 155, 1)"></path><path d="M180.08 119.09L207.78 119.09L207.78 170.26L180.08 170.26z" stroke="rgba(221, 33, 32, 1)"></path><path d="M235.09-0.11a15.19 15.19 0 1 0 4.61 30.03z" fill="rgba(221, 33, 32, 1)"></path><path d="M942.62 158.95L974.3 158.95L974.3 190.63L942.62 190.63z" fill="rgba(221, 33, 32, 1)"></path><path d="M70.84 262.76a18.54 18.54 0 1 0-23.88 28.37z" stroke="rgba(229, 129, 38, 1)"></path><path d="M904.73 528.74L931.13 528.74L931.13 555.14L904.73 555.14z" fill="rgba(229, 129, 38, 1)"></path><path d="M790.75 527.26L800.36 527.26L800.36 536.87L790.75 536.87z" fill="rgba(229, 129, 38, 1)"></path><path d="M253.39 525.84 a49.82 49.82 0 1 0 99.64 0 a49.82 49.82 0 1 0 -99.64 0z" stroke="rgba(18, 207, 155, 1)"></path><path d="M1127.49 197.53 a8.26 8.26 0 1 0 16.52 0 a8.26 8.26 0 1 0 -16.52 0z" stroke="rgba(18, 207, 155, 1)"></path><path d="M1220.42 300.1L1255.8 300.1L1255.8 350.33L1220.42 350.33z" fill="rgba(229, 129, 38, 1)"></path><path d="M302.68 559.6a33.16 33.16 0 1 0-66.2-4.03z" fill="rgba(229, 129, 38, 1)"></path><path d="M715.78 222.83 a51.22 51.22 0 1 0 102.44 0 a51.22 51.22 0 1 0 -102.44 0z" stroke="rgba(18, 207, 155, 1)"></path><path d="M1118.64 336.03L1160.05 336.03L1160.05 377.44L1118.64 377.44z" stroke="rgba(229, 129, 38, 1)"></path><path d="M345.29 544.67 a41.2 41.2 0 1 0 82.4 0 a41.2 41.2 0 1 0 -82.4 0z" fill="rgba(221, 33, 32, 1)"></path><path d="M861.93 454.55L916.1 454.55L916.1 508.72L861.93 508.72z" fill="rgba(18, 207, 155, 1)"></path><path d="M211.73 557.59 a13.62 13.62 0 1 0 27.24 0 a13.62 13.62 0 1 0 -27.24 0z" stroke="rgba(229, 129, 38, 1)"></path><path d="M459.25 459.53a26.69 26.69 0 1 0-17.99-50.26z" stroke="rgba(229, 129, 38, 1)"></path></g><defs><mask id="SvgjsMask1006"><rect width="1440" height="560" fill="#ffffff"></rect></mask></defs></svg>